<svg width="25" height="25" viewBox="0 0 25 25" fill="none" xmlns="http://www.w3.org/2000/svg">
<path d="M9.375 15.2344C10.0222 15.2344 10.5469 14.7097 10.5469 14.0625C10.5469 13.4153 10.0222 12.8906 9.375 12.8906C8.72779 12.8906 8.20312 13.4153 8.20312 14.0625C8.20312 14.7097 8.72779 15.2344 9.375 15.2344Z" fill="url(#paint0_linear_174_731)"/>
<path d="M15.625 15.2344C16.2722 15.2344 16.7969 14.7097 16.7969 14.0625C16.7969 13.4153 16.2722 12.8906 15.625 12.8906C14.9778 12.8906 14.4531 13.4153 14.4531 14.0625C14.4531 14.7097 14.9778 15.2344 15.625 15.2344Z" fill="url(#paint1_linear_174_731)"/>
<path d="M7.26562 7.81248C8.95923 7.28169 10.7252 7.01811 12.5 7.03123C14.2748 7.01811 16.0408 7.28169 17.7344 7.81248" stroke="url(#paint2_linear_174_731)" stroke-width="2" stroke-linecap="round" stroke-linejoin="round"/>
<path d="M17.7344 17.1875C16.0408 17.7183 14.2748 17.9819 12.5 17.9688C10.7252 17.9819 8.95923 17.7183 7.26562 17.1875" stroke="url(#paint3_linear_174_731)" stroke-width="2" stroke-linecap="round" stroke-linejoin="round"/>
<path d="M15.1367 17.783L16.3184 20.1267C16.3944 20.2865 16.5237 20.4149 16.6841 20.4898C16.8445 20.5646 17.0259 20.5813 17.1973 20.5369C19.5898 19.9509 21.6602 18.9353 23.1641 17.6267C23.2774 17.5267 23.3598 17.3962 23.4013 17.2509C23.4429 17.1055 23.4419 16.9512 23.3984 16.8064L20.0879 5.75171C20.0557 5.63858 19.9974 5.53459 19.9176 5.44809C19.8379 5.36159 19.739 5.295 19.6289 5.25367C18.6936 4.86995 17.7263 4.56931 16.7383 4.35523C16.5484 4.31365 16.3499 4.34343 16.1806 4.43889C16.0112 4.53436 15.883 4.68882 15.8203 4.87281L15.0488 7.20679" stroke="url(#paint4_linear_174_731)" stroke-width="2" stroke-linecap="round" stroke-linejoin="round"/>
<path d="M9.86327 17.783L8.68163 20.1267C8.6056 20.2865 8.47628 20.4149 8.3159 20.4898C8.15551 20.5646 7.97406 20.5813 7.80273 20.5369C5.41015 19.9509 3.33984 18.9353 1.83593 17.6267C1.72255 17.5267 1.64021 17.3962 1.59867 17.2509C1.55713 17.1055 1.55813 16.9512 1.60155 16.8064L4.9121 5.75171C4.94432 5.63858 5.00263 5.53459 5.08234 5.44809C5.16206 5.36159 5.26096 5.295 5.37109 5.25367C6.3064 4.86995 7.27367 4.56931 8.26171 4.35523C8.45158 4.31365 8.65012 4.34343 8.81944 4.43889C8.98875 4.53436 9.11699 4.68882 9.17968 4.87281L9.95116 7.20679" stroke="url(#paint5_linear_174_731)" stroke-width="2" stroke-linecap="round" stroke-linejoin="round"/>
<path d="M9.375 15.2344C10.0222 15.2344 10.5469 14.7097 10.5469 14.0625C10.5469 13.4153 10.0222 12.8906 9.375 12.8906C8.72779 12.8906 8.20312 13.4153 8.20312 14.0625C8.20312 14.7097 8.72779 15.2344 9.375 15.2344Z" fill="url(#paint6_linear_174_731)"/>
<path d="M15.625 15.2344C16.2722 15.2344 16.7969 14.7097 16.7969 14.0625C16.7969 13.4153 16.2722 12.8906 15.625 12.8906C14.9778 12.8906 14.4531 13.4153 14.4531 14.0625C14.4531 14.7097 14.9778 15.2344 15.625 15.2344Z" fill="url(#paint7_linear_174_731)"/>
<path d="M7.26562 7.81248C8.95923 7.28169 10.7252 7.01811 12.5 7.03123C14.2748 7.01811 16.0408 7.28169 17.7344 7.81248" stroke="url(#paint8_linear_174_731)" stroke-width="2" stroke-linecap="round" stroke-linejoin="round"/>
<path d="M17.7344 17.1875C16.0408 17.7183 14.2748 17.9819 12.5 17.9688C10.7252 17.9819 8.95923 17.7183 7.26562 17.1875" stroke="url(#paint9_linear_174_731)" stroke-width="2" stroke-linecap="round" stroke-linejoin="round"/>
<path d="M15.1367 17.783L16.3184 20.1267C16.3944 20.2865 16.5237 20.4149 16.6841 20.4898C16.8445 20.5646 17.0259 20.5813 17.1973 20.5369C19.5898 19.9509 21.6602 18.9353 23.1641 17.6267C23.2774 17.5267 23.3598 17.3962 23.4013 17.2509C23.4429 17.1055 23.4419 16.9512 23.3984 16.8064L20.0879 5.75171C20.0557 5.63858 19.9974 5.53459 19.9176 5.44809C19.8379 5.36159 19.739 5.295 19.6289 5.25367C18.6936 4.86995 17.7263 4.56931 16.7383 4.35523C16.5484 4.31365 16.3499 4.34343 16.1806 4.43889C16.0112 4.53436 15.883 4.68882 15.8203 4.87281L15.0488 7.20679" stroke="url(#paint10_linear_174_731)" stroke-width="2" stroke-linecap="round" stroke-linejoin="round"/>
<path d="M9.86327 17.783L8.68163 20.1267C8.6056 20.2865 8.47628 20.4149 8.3159 20.4898C8.15551 20.5646 7.97406 20.5813 7.80273 20.5369C5.41015 19.9509 3.33984 18.9353 1.83593 17.6267C1.72255 17.5267 1.64021 17.3962 1.59867 17.2509C1.55713 17.1055 1.55813 16.9512 1.60155 16.8064L4.9121 5.75171C4.94432 5.63858 5.00263 5.53459 5.08234 5.44809C5.16206 5.36159 5.26096 5.295 5.37109 5.25367C6.3064 4.86995 7.27367 4.56931 8.26171 4.35523C8.45158 4.31365 8.65012 4.34343 8.81944 4.43889C8.98875 4.53436 9.11699 4.68882 9.17968 4.87281L9.95116 7.20679" stroke="url(#paint11_linear_174_731)" stroke-width="2" stroke-linecap="round" stroke-linejoin="round"/>
<defs>
<linearGradient id="paint0_linear_174_731" x1="8.20312" y1="14.0625" x2="10.5469" y2="14.0625" gradientUnits="userSpaceOnUse">
<stop stop-color="#02549F"/>
<stop offset="1" stop-color="#002E58"/>
</linearGradient>
<linearGradient id="paint1_linear_174_731" x1="14.4531" y1="14.0625" x2="16.7969" y2="14.0625" gradientUnits="userSpaceOnUse">
<stop stop-color="#02549F"/>
<stop offset="1" stop-color="#002E58"/>
</linearGradient>
<linearGradient id="paint2_linear_174_731" x1="7.26562" y1="7.42162" x2="17.7344" y2="7.42162" gradientUnits="userSpaceOnUse">
<stop stop-color="#02549F"/>
<stop offset="1" stop-color="#002E58"/>
</linearGradient>
<linearGradient id="paint3_linear_174_731" x1="7.26562" y1="17.5784" x2="17.7344" y2="17.5784" gradientUnits="userSpaceOnUse">
<stop stop-color="#02549F"/>
<stop offset="1" stop-color="#002E58"/>
</linearGradient>
<linearGradient id="paint4_linear_174_731" x1="15.0488" y1="12.4491" x2="23.4318" y2="12.4491" gradientUnits="userSpaceOnUse">
<stop stop-color="#02549F"/>
<stop offset="1" stop-color="#002E58"/>
</linearGradient>
<linearGradient id="paint5_linear_174_731" x1="1.56824" y1="12.4491" x2="9.95116" y2="12.4491" gradientUnits="userSpaceOnUse">
<stop stop-color="#02549F"/>
<stop offset="1" stop-color="#002E58"/>
</linearGradient>
<linearGradient id="paint6_linear_174_731" x1="8.20312" y1="14.0625" x2="10.5469" y2="14.0625" gradientUnits="userSpaceOnUse">
<stop stop-color="#02549F"/>
<stop offset="1" stop-color="#002E58"/>
</linearGradient>
<linearGradient id="paint7_linear_174_731" x1="14.4531" y1="14.0625" x2="16.7969" y2="14.0625" gradientUnits="userSpaceOnUse">
<stop stop-color="#02549F"/>
<stop offset="1" stop-color="#002E58"/>
</linearGradient>
<linearGradient id="paint8_linear_174_731" x1="7.26562" y1="7.42162" x2="17.7344" y2="7.42162" gradientUnits="userSpaceOnUse">
<stop stop-color="#02549F"/>
<stop offset="1" stop-color="#002E58"/>
</linearGradient>
<linearGradient id="paint9_linear_174_731" x1="7.26562" y1="17.5784" x2="17.7344" y2="17.5784" gradientUnits="userSpaceOnUse">
<stop stop-color="#02549F"/>
<stop offset="1" stop-color="#002E58"/>
</linearGradient>
<linearGradient id="paint10_linear_174_731" x1="15.0488" y1="12.4491" x2="23.4318" y2="12.4491" gradientUnits="userSpaceOnUse">
<stop stop-color="#02549F"/>
<stop offset="1" stop-color="#002E58"/>
</linearGradient>
<linearGradient id="paint11_linear_174_731" x1="1.56824" y1="12.4491" x2="9.95116" y2="12.4491" gradientUnits="userSpaceOnUse">
<stop stop-color="#02549F"/>
<stop offset="1" stop-color="#002E58"/>
</linearGradient>
</defs>
</svg>
