<svg width="20" height="21" viewBox="0 0 20 21" fill="none" xmlns="http://www.w3.org/2000/svg">
<path d="M10 14.3469C12.0711 14.3469 13.75 12.668 13.75 10.5969C13.75 8.52586 12.0711 6.84692 10 6.84692C7.92893 6.84692 6.25 8.52586 6.25 10.5969C6.25 12.668 7.92893 14.3469 10 14.3469Z" stroke="white" stroke-width="2" stroke-linecap="round" stroke-linejoin="round"/>
<path d="M15.4218 6.90161C15.6099 7.17089 15.7746 7.45578 15.914 7.75317L17.9375 8.87817C18.1901 10.0098 18.1928 11.1829 17.9453 12.3157L15.914 13.4407C15.7746 13.7381 15.6099 14.023 15.4218 14.2922L15.4609 16.6125C14.6034 17.394 13.5884 17.9827 12.4843 18.3391L10.4921 17.1438C10.1644 17.1672 9.83548 17.1672 9.50777 17.1438L7.5234 18.3313C6.41583 17.9814 5.39753 17.3949 4.53902 16.6125L4.57809 14.3C4.39158 14.027 4.227 13.7397 4.0859 13.4407L2.06246 12.3157C1.8098 11.1841 1.80714 10.0109 2.05465 8.87817L4.0859 7.75317C4.22534 7.45578 4.39 7.17089 4.57809 6.90161L4.53902 4.5813C5.39656 3.79987 6.41151 3.21114 7.51559 2.85474L9.50777 4.05005C9.83548 4.02661 10.1644 4.02661 10.4921 4.05005L12.4765 2.86255C13.5841 3.21247 14.6024 3.79892 15.4609 4.5813L15.4218 6.90161Z" stroke="white" stroke-width="2" stroke-linecap="round" stroke-linejoin="round"/>
</svg>
