<svg width="25" height="25" viewBox="0 0 25 25" fill="none" xmlns="http://www.w3.org/2000/svg">
<path d="M16.4062 10.3516C18 11.4959 19.913 12.1108 21.875 12.1094V8.20312C20.4246 8.20312 19.0336 7.62695 18.008 6.60136C16.9824 5.57578 16.4063 4.18478 16.4062 2.73438H12.5V15.2344C12.5 15.7237 12.3686 16.2041 12.1197 16.6253C11.8707 17.0466 11.5133 17.3933 11.0847 17.6294C10.656 17.8654 10.1719 17.9821 9.68279 17.9673C9.19369 17.9525 8.71752 17.8067 8.30397 17.5451C7.89041 17.2836 7.55463 16.9158 7.33165 16.4802C7.10867 16.0447 7.00666 15.5572 7.03626 15.0688C7.06586 14.5804 7.22599 14.1088 7.49994 13.7034C7.7739 13.2979 8.15164 12.9734 8.59375 12.7637V8.70117C7.35017 8.92413 6.19601 9.4972 5.26672 10.3531C4.33744 11.2091 3.67161 12.3123 3.34739 13.5334C3.02317 14.7545 3.05401 16.0428 3.4363 17.2469C3.81859 18.4511 4.53646 19.5213 5.50564 20.3317C6.47482 21.1422 7.65509 21.6594 8.90791 21.8226C10.1607 21.9858 11.4341 21.7882 12.5786 21.253C13.723 20.7178 14.6911 19.8673 15.3691 18.8012C16.047 17.7351 16.4069 16.4978 16.4062 15.2344V10.3516Z" stroke="url(#paint0_linear_174_726)" stroke-width="2" stroke-linecap="round" stroke-linejoin="round"/>
<defs>
<linearGradient id="paint0_linear_174_726" x1="3.125" y1="12.3063" x2="21.875" y2="12.3063" gradientUnits="userSpaceOnUse">
<stop stop-color="#02549F"/>
<stop offset="1" stop-color="#002E58"/>
</linearGradient>
</defs>
</svg>
